# xmcd
#
# Track frame offsets: 
#        175
#        12600
#        37600
#        56712
#        89950
#        103562
#        124425
#        159162
#        180300
#
# Disc length: 2682 seconds
#
# Revision: 1
# Processed by: cddbd v1.5.2PL0 Copyright (c) Steve Scherf et al.
# Submitted via: ExactAudioCopyFreeDBPlugin 1.0
#
DISCID=6f0a7809
DTITLE=Ундров Константин - Ростов-мой папа
DYEAR=1995
DGENRE=Шансон
TTITLE0=Я, Ундров Костя
TTITLE1=Ростов-мой папа
TTITLE2=Три поросенка
TTITLE3=Левый берег Дона
TTITLE4=Ростовский парень
TTITLE5=В Нахичевани
TTITLE6=Каштаны
TTITLE7=Белый город
TTITLE8=Тихий Дон
EXTD=
EXTT0=
EXTT1=
EXTT2=
EXTT3=
EXTT4=
EXTT5=
EXTT6=
EXTT7=
EXTT8=
PLAYORDER=
